<svg width="720" height="240" viewBox="0 0 720 240" fill="none" xmlns="http://www.w3.org/2000/svg">
<path d="M191.052 40.1291H170.655L170.747 140.332C170.747 144.945 167.24 147.205 163.733 147.205C160.225 147.205 156.718 144.991 156.718 140.332L156.626 40.1753L136.275 40.2214C131.614 40.2214 129.214 36.7152 129.214 33.1629C129.214 29.6568 131.567 26.1506 136.228 26.1506L191.006 26.1045C195.621 26.1045 198.02 29.6107 198.067 33.1168C198.067 36.623 195.667 40.1291 191.052 40.1291Z" fill="#EF0C1D"/>
<path d="M255.059 108.039L214.68 108.085V117.543C214.68 126.216 221.74 133.228 230.416 133.228H232.262C239.507 133.228 244.307 128.984 246.706 123.817C247.998 120.634 250.398 119.388 252.798 119.388C256.49 119.388 259.997 122.341 260.043 126.585C260.043 127.692 259.858 128.799 259.305 129.722C254.874 140.102 244.907 147.115 232.308 147.161H230.462C213.987 147.161 200.651 134.243 200.651 117.589L200.604 85.7567C200.604 69.287 213.895 55.9543 230.416 55.9082H232.262C248.737 55.9082 262.074 68.6411 262.074 85.849V101.027C262.074 104.718 258.982 108.039 255.059 108.039ZM247.998 85.849C247.998 76.8068 240.569 69.979 232.447 69.979H230.601C221.925 69.979 214.68 76.8529 214.68 85.7567V94.9834H247.998V85.849Z" fill="#EF0C1D"/>
<path d="M384.874 146.975C381.367 146.975 377.859 144.761 377.859 140.101L377.813 85.3405C377.813 74.9604 371.491 69.7934 362.077 69.7934H360.415C351.555 69.7934 344.494 76.6674 344.494 85.7096L344.541 139.732C344.541 144.715 341.033 146.929 337.526 146.929C334.019 146.929 330.512 144.715 330.512 139.732L330.419 85.7557C330.419 76.2983 323.359 69.8396 314.498 69.8857H312.837C304.53 69.8857 296.916 75.4679 296.916 84.141L296.962 140.147C296.962 144.807 293.455 147.021 289.948 147.021C286.44 147.021 282.933 144.807 282.933 140.147L282.841 62.8272C282.841 58.3984 286.348 55.8149 290.04 55.8149C292.993 55.8149 296.131 57.6603 296.87 61.351C300.377 57.7987 306.33 55.7688 312.791 55.7688H314.452C323.912 55.7688 331.711 59.8286 337.434 66.2873C343.156 59.7824 350.909 55.7227 360.369 55.7227H362.031C377.767 55.7227 391.842 64.9494 391.842 85.2944L391.888 140.055C391.888 144.715 388.427 146.975 384.874 146.975Z" fill="#EF0C1D"/>
<path d="M475.278 146.883C474.678 146.883 474.17 146.883 473.986 146.698C467.479 145.776 463.787 143.192 461.387 139.686C455.988 144.299 448.973 146.929 441.359 146.929H439.698C424.884 146.929 409.886 137.887 409.84 120.494V118.28C409.794 89.0312 452.019 93.9675 456.634 87.8778C457.188 87.1397 457.188 85.6634 457.188 84.7408C457.188 73.6225 450.312 69.7473 442.19 69.7934H440.897C433.283 69.7934 429.453 72.9767 425.899 79.0663C424.423 81.8343 422.023 82.757 419.623 82.757C416.116 82.757 412.563 80.1735 412.563 76.2521C412.563 75.0065 412.747 73.8532 413.301 72.9305C419.208 59.5979 431.253 55.7227 440.851 55.7227H442.19C458.664 55.7227 471.263 68.4556 471.263 84.1871L471.309 127.138C471.309 130.644 472.97 132.674 476.108 133.227C480.354 133.965 482.061 136.918 482.061 139.871C482.108 143.515 479.708 146.883 475.278 146.883ZM457.28 102.641C443.574 106.008 423.961 106.008 423.961 118.603V120.079C423.961 128.014 430.283 132.997 439.698 132.997H441.359C450.081 132.997 457.28 126.169 457.28 117.265V102.641Z" fill="#EF0C1D"/>
<path d="M525.995 146.836H524.887C512.889 146.836 499.137 140.008 493.23 128.521C492.63 127.276 492.307 126.168 492.307 125.015C492.307 120.771 495.86 118.187 499.552 118.187C501.767 118.187 504.213 118.925 505.874 121.324C510.489 127.46 518.473 132.95 525.302 132.95H526.225C537.532 132.95 543.808 126.676 543.992 120.54C544.546 95.9507 495.906 114.312 495.86 79.3426C495.814 61.5811 514.55 55.676 526.179 55.6299H526.918C539.701 55.6299 548.238 61.1659 551.191 63.5649C552.853 64.8566 553.776 66.7481 553.776 68.9164C553.776 72.4225 551.007 75.5596 547.13 75.5596C545.838 75.5596 544.546 75.1906 543.069 74.4524C539.147 72.4225 535.086 69.47 526.779 69.47H526.041C515.657 69.47 510.12 74.0834 509.935 79.481C509.197 99.4569 558.067 83.3101 558.114 120.171V120.909C558.021 138.117 541.5 146.79 525.995 146.836Z" fill="#EF0C1D"/>
<path d="M627.935 107.668L587.556 107.715V117.126C587.602 125.845 594.616 132.857 603.338 132.857L605.184 132.811C612.429 132.811 617.229 128.567 619.628 123.4C620.92 120.263 623.32 118.971 625.766 118.971C629.458 118.971 633.011 121.924 633.011 126.168C633.011 127.275 632.827 128.382 632.273 129.305C627.843 139.639 617.828 146.698 605.23 146.698H603.384C586.909 146.698 573.573 133.78 573.526 117.126V85.2936C573.48 68.8239 586.817 55.4912 603.292 55.4912H605.138C621.613 55.4912 634.996 68.2241 634.996 85.432V100.61C634.949 104.347 631.765 107.668 627.935 107.668ZM620.828 85.4781C620.828 76.4359 613.398 69.562 605.276 69.562H603.43C594.708 69.562 587.509 76.3898 587.509 85.3397V94.5665L620.828 94.5203V85.4781Z" fill="#EF0C1D"/>
<path d="M712.708 146.606C710.493 146.606 708.278 145.868 706.801 143.1L683.635 102.594L671.221 115.927L671.267 139.778C671.267 144.438 667.76 146.652 664.206 146.652C660.699 146.652 657.192 144.438 657.192 139.778L657.1 26.0585C657.1 21.399 660.607 19.0461 664.114 19C667.621 19 671.129 21.399 671.175 26.0123L671.267 95.1667L706.386 57.7984C707.909 56.1376 709.524 55.3995 711.416 55.3995C715.661 55.3995 718.615 58.9056 718.615 62.5963C718.615 64.4417 717.876 66.1025 716.63 67.4404L693.695 91.8912L719.122 136.272C719.815 137.564 719.999 138.486 719.999 139.778C719.907 143.469 716.954 146.606 712.708 146.606Z" fill="#EF0C1D"/>
<path d="M333.742 174.932C332.173 174.932 330.788 176.316 330.788 177.884L330.834 217.79C330.834 219.774 332.403 220.65 333.788 220.65C335.218 220.65 336.741 219.728 336.741 217.79C336.741 217.79 336.741 201.182 336.741 200.213C337.618 200.213 344.171 200.213 344.171 200.213C351.185 200.167 356.862 194.493 356.862 187.48C356.862 180.56 351.139 174.886 344.125 174.932H333.742ZM344.079 180.791C347.863 180.791 350.909 183.836 350.909 187.48C350.909 191.263 347.863 194.308 344.079 194.308C344.079 194.308 337.526 194.308 336.649 194.308C336.649 193.385 336.649 181.667 336.649 180.745C337.526 180.791 344.079 180.791 344.079 180.791Z" fill="#545454"/>
<path d="M380.72 174.517C373.705 174.517 368.029 180.237 368.029 187.203V208.01C368.029 215.114 373.613 220.65 380.766 220.65H381.412C388.381 220.65 394.057 214.976 394.057 207.964L394.011 187.157C394.011 180.191 388.334 174.517 381.366 174.517H380.72ZM373.936 207.964L373.89 187.157C373.89 183.513 376.982 180.422 380.674 180.376H381.366C385.15 180.376 388.104 183.374 388.104 187.203L388.15 207.917C388.15 211.747 385.196 214.791 381.366 214.791H380.72C376.982 214.791 373.936 211.746 373.936 207.964Z" fill="#545454"/>
<path d="M409.378 177.423L409.424 217.329C409.424 218.897 410.809 220.281 412.378 220.281H429.914C431.806 220.281 432.821 218.805 432.821 217.329C432.821 215.899 431.806 214.376 429.868 214.376C429.868 214.376 416.208 214.422 415.239 214.422C415.239 213.454 415.193 177.423 415.193 177.423C415.193 175.486 413.716 174.471 412.239 174.471C410.901 174.471 409.378 175.486 409.378 177.423Z" fill="#545454"/>
<path d="M461.387 174.425C460.233 174.425 459.218 175.117 458.756 176.27C458.756 176.27 452.019 192.463 451.234 194.447C450.404 192.463 443.62 176.27 443.62 176.27C443.158 175.117 442.189 174.425 441.036 174.425C439.928 174.425 438.959 174.932 438.405 175.763C437.898 176.593 437.805 177.562 438.221 178.531L448.327 202.751V217.652C448.327 219.544 449.804 220.512 451.28 220.512C452.757 220.512 454.234 219.544 454.234 217.652L454.188 202.566L464.248 178.531C464.663 177.516 464.571 176.547 464.017 175.717C463.371 174.886 462.448 174.425 461.387 174.425Z" fill="#545454"/>
<path d="M475.692 174.793C473.754 174.793 472.738 176.269 472.738 177.699C472.738 179.176 473.754 180.652 475.692 180.652C475.692 180.652 481.368 180.652 482.245 180.652C482.245 181.575 482.291 217.605 482.291 217.605C482.291 219.589 483.814 220.512 485.244 220.465C486.721 220.465 488.198 219.497 488.198 217.605C488.198 217.605 488.152 181.575 488.152 180.652C489.028 180.652 494.705 180.652 494.705 180.652C496.643 180.652 497.658 179.176 497.658 177.699C497.658 176.223 496.643 174.747 494.705 174.793H475.692Z" fill="#545454"/>
<path d="M512.103 174.747C510.534 174.747 509.195 176.131 509.195 177.699L509.241 217.236C509.241 218.804 510.58 220.142 512.149 220.142L532.269 220.096C534.3 220.096 535.223 218.62 535.223 217.19C535.177 215.713 534.3 214.237 532.269 214.237C532.269 214.237 516.071 214.237 515.102 214.237C515.102 213.36 515.102 200.489 515.102 199.613C516.025 199.613 526.916 199.613 526.916 199.613C528.854 199.613 529.87 198.09 529.87 196.66C529.87 195.184 528.854 193.708 526.916 193.708C526.916 193.708 516.025 193.708 515.102 193.708C515.102 192.785 515.102 181.436 515.102 180.513C516.071 180.513 532.269 180.513 532.269 180.513C534.438 180.513 535.223 178.945 535.223 177.607C535.223 176.131 534.3 174.654 532.269 174.654L512.103 174.747Z" fill="#545454"/>
<path d="M559.406 174.332C552.437 174.332 546.715 180.006 546.715 187.019L546.761 207.825C546.761 214.93 552.345 220.466 559.498 220.466H560.144C566.42 220.466 571.865 215.852 572.696 209.67V209.163C572.696 207.271 571.219 206.303 569.835 206.303C568.727 206.303 567.297 206.949 566.881 208.794C566.189 212.254 563.42 214.653 560.098 214.653H559.452C555.714 214.653 552.668 211.608 552.668 207.825L552.622 187.019C552.622 183.374 555.714 180.283 559.406 180.283H560.098C563.374 180.283 566.189 182.636 566.881 186.096C567.205 187.619 568.358 188.633 569.789 188.633C571.219 188.633 572.65 187.619 572.65 185.773V185.358C571.773 178.992 566.466 174.378 560.052 174.378H559.406V174.332Z" fill="#545454"/>
<path d="M605.922 177.238C605.922 177.238 605.922 192.785 605.922 193.708C604.999 193.708 592.585 193.754 591.662 193.754C591.616 192.785 591.616 177.284 591.616 177.284C591.616 175.347 590.139 174.332 588.662 174.332C587.186 174.332 585.709 175.347 585.709 177.284L585.755 217.559C585.755 219.496 587.278 220.419 588.709 220.419C590.185 220.419 591.662 219.404 591.662 217.559C591.662 217.559 591.616 200.536 591.616 199.613C592.539 199.613 604.953 199.613 605.876 199.613C605.876 200.536 605.876 217.559 605.876 217.559C605.876 219.681 607.445 220.419 608.829 220.419C610.629 220.419 611.783 219.312 611.783 217.559L611.736 177.238C611.736 175.3 610.26 174.285 608.783 174.332C607.399 174.285 605.922 175.3 605.922 177.238Z" fill="#545454"/>
<path d="M648.286 177.192C648.286 177.192 648.332 202.151 648.332 206.21C646.67 202.427 635.318 176.593 635.318 176.593C634.441 174.609 633.241 174.24 631.58 174.24C629.919 174.24 628.165 175.162 628.165 177.238L628.211 217.467C628.211 219.359 629.688 220.327 631.165 220.327C632.595 220.327 634.118 219.405 634.118 217.467C634.118 217.467 634.072 192.463 634.072 188.403C635.733 192.14 647.132 217.928 647.132 217.928C648.239 220.327 649.947 220.327 650.916 220.327C652.993 220.327 654.192 219.128 654.146 217.006L654.1 177.146C654.1 175.209 652.67 174.194 651.239 174.24C649.808 174.24 648.286 175.255 648.286 177.192Z" fill="#545454"/>
<path d="M671.175 177.147L671.221 217.422C671.221 219.405 672.744 220.282 674.174 220.282C675.651 220.282 677.128 219.267 677.128 217.422L677.082 177.147C677.082 175.209 675.605 174.194 674.128 174.194C672.652 174.194 671.175 175.209 671.175 177.147Z" fill="#545454"/>
<path d="M705.833 174.194C698.818 174.194 693.096 179.868 693.142 186.834V207.641C693.142 214.699 698.726 220.281 705.879 220.281H706.525C712.801 220.281 718.2 215.622 719.077 209.486V208.978C719.077 207.087 717.646 206.072 716.216 206.072C715.108 206.072 713.724 206.718 713.309 208.563C712.616 212.023 709.847 214.422 706.525 214.422H705.879C702.095 214.422 699.003 211.331 699.003 207.594V186.788C699.003 183.097 702.095 180.006 705.833 180.006H706.479C709.755 180.006 712.57 182.405 713.262 185.865C713.585 187.434 714.739 188.357 716.17 188.357C717.6 188.357 719.031 187.342 719.031 185.496V185.127C718.154 178.715 712.847 174.147 706.479 174.147H705.833V174.194Z" fill="#545454"/>
<path d="M44.7634 78.4658C45.2249 83.4944 45.0403 89.8147 44.9942 92.3059V92.4443C44.8557 102.548 41.6254 110.99 40.7947 113.02C43.056 113.481 52.3779 115.557 60.1769 119.386C68.345 115.419 77.2977 113.435 79.4667 112.974C79.3282 112.651 75.3595 103.24 75.2672 92.3521V92.2598C75.2211 90.3222 74.9903 83.6789 75.498 78.4658V78.3274L86.0658 69.6543H78.5899L70.6986 76.1591L70.7447 109.006L70.514 109.052C67.699 109.744 64.284 110.99 60.3614 112.835L60.223 112.882H59.9923C56.7158 111.313 52.9778 109.975 49.7936 109.145L49.5628 109.099L49.5167 108.822V76.1591L41.6254 69.7004H34.1494L44.7173 78.3274L44.7634 78.4658Z" fill="#EF0C1D"/>
<path d="M82.7901 78.6504L80.7134 80.7264L80.6672 82.5718C80.6672 83.1254 80.6211 84.048 80.6211 84.6016H83.0208L85.7435 81.7413L82.7901 78.6504Z" fill="#EF0C1D"/>
<path d="M37.472 78.6504L34.5186 81.7413L37.2874 84.6016H39.641L39.5948 82.7563C39.5948 81.9259 39.5487 81.0493 39.5487 80.7264L37.472 78.6504Z" fill="#EF0C1D"/>
<path d="M80.7588 89.1692C80.7588 89.8151 80.8511 91.1068 80.8972 92.0295C80.9895 93.3212 81.0818 94.6591 81.1741 95.2588H84.2199L87.1734 92.4908L83.943 89.123L80.7588 89.1692Z" fill="#EF0C1D"/>
<path d="M81.8203 100.426C81.9126 101.026 82.1895 102.225 82.6971 104.071C83.0202 105.316 83.4355 106.285 83.6201 106.7L87.035 106.654L89.3886 104.301L85.5583 100.38L81.8203 100.426Z" fill="#EF0C1D"/>
<path d="M60.0847 36.0694C26.8582 36.1155 -0.0460887 63.0576 5.92783e-05 96.2277C0.0462072 129.398 26.9505 156.294 60.177 156.294C93.4035 156.294 120.262 129.306 120.215 96.1355C120.215 62.9192 93.265 36.0233 60.0847 36.0694ZM73.283 50.9706L60.1308 64.1648L46.9787 50.9706H73.283ZM94.6033 131.705L88.881 131.751C76.421 132.212 61.5614 139.04 60.3616 139.778L60.2231 139.87L59.9924 139.778H59.9462C59.8078 139.686 44.2559 132.212 31.3807 131.751H25.7045L16.1057 116.803L18.5515 110.898H18.8746C24.0893 110.898 27.3658 111.129 28.981 111.267L23.4432 105.685H20.259L22.1972 99.78L27.0428 99.7339L30.3654 96.32L27.2735 93.229H23.7201L24.8277 87.2778H29.9501L31.6575 85.5247L28.8425 82.3876H25.6583L26.6274 75.8828H31.8421L32.9958 74.6372L26.9043 68.8243V68.7321C26.9043 68.6398 26.9043 68.5014 27.0889 65.4566C27.1812 64.1187 27.2735 62.8269 27.2735 62.504V62.1811L27.5965 62.1349H47.5324V67.2558H55.2391V104.301H65.0687V67.2558H72.7754V62.1349H92.9882L93.4496 68.7782L87.312 74.6833L88.5118 75.9289L93.7265 75.8828L94.6956 82.3876H91.4653L88.6964 85.4786L90.45 87.2778H95.5263L96.6338 93.229H93.0343L89.9885 96.32L93.3573 99.7339H98.0644L100.049 105.685H96.8184L91.3268 111.267C92.3421 111.175 93.9573 111.037 95.8032 110.991C97.603 110.944 101.433 110.898 101.479 110.898H101.71L104.202 116.757L94.6033 131.705Z" fill="#EF0C1D"/>
<path d="M39.1342 95.3047C39.1804 94.6127 39.365 93.0903 39.4111 92.306C39.4573 91.937 39.5034 91.0604 39.5496 89.1689H36.3192L33.0889 92.4906L36.0885 95.3047H39.1342Z" fill="#EF0C1D"/>
<path d="M60.3149 125.937L60.1765 126.029L59.9919 125.937C45.7783 118.602 31.7032 117.771 26.3501 117.771C25.7501 117.771 25.1041 117.818 24.6426 117.818L29.3958 125.199C31.1956 125.291 45.686 126.445 60.1765 133.734C66.7295 130.458 77.2512 126.352 90.3572 125.245C90.588 125.245 90.7726 125.199 90.911 125.199L95.6181 117.818C95.2028 117.818 94.5567 117.771 93.7722 117.771C88.4652 117.818 74.6208 118.602 60.3149 125.937Z" fill="#EF0C1D"/>
<path d="M36.6874 106.654C36.6874 106.608 36.7336 106.516 36.7336 106.47C36.9182 106.008 37.2412 105.132 37.5181 104.117C37.9796 102.594 38.2565 101.118 38.3949 100.38H34.7031L30.9189 104.347L33.2725 106.7L36.6874 106.654Z" fill="#EF0C1D"/>
</svg>
